<?xml version="1.0" standalone="no"?>
<!DOCTYPE svg PUBLIC "-//W3C//DTD SVG 20010904//EN"
 "http://www.w3.org/TR/2001/REC-SVG-20010904/DTD/svg10.dtd">
<svg version="1.0" xmlns="http://www.w3.org/2000/svg"
 width="1024.000000pt" height="919.000000pt" viewBox="0 0 1024.000000 919.000000"
 preserveAspectRatio="xMidYMid meet">
<metadata>
Created by potrace 1.16, written by Peter Selinger 2001-2019
</metadata>
<g transform="translate(0.000000,919.000000) scale(0.100000,-0.100000)"
fill="#000000" stroke="none">
<path d="M0 8830 l0 -360 5120 0 5120 0 0 360 0 360 -5120 0 -5120 0 0 -360z
m408 153 c68 -51 89 -130 53 -200 -19 -39 -67 -83 -89 -83 -5 0 -12 18 -14 40
-3 35 -1 41 24 51 34 14 42 37 33 97 l-6 47 -89 0 -89 0 -7 -52 c-7 -58 -3
-68 37 -92 26 -16 28 -20 14 -31 -13 -11 -20 -9 -40 10 -27 25 -33 17 -11 -12
7 -10 23 -18 35 -18 14 0 21 -6 21 -20 0 -31 -28 -24 -70 18 -80 80 -57 212
45 258 40 19 120 12 153 -13z m9652 -3 c18 -18 20 -33 20 -150 0 -186 34 -170
-360 -170 -394 0 -360 -16 -360 170 0 186 -34 170 360 170 307 0 321 -1 340
-20z"/>
<path d="M9386 8974 c-13 -12 -16 -40 -16 -143 0 -111 2 -130 18 -144 16 -15
55 -17 334 -17 292 0 316 1 331 18 14 15 17 41 17 144 0 108 -2 127 -18 141
-16 15 -55 17 -335 17 -274 0 -318 -2 -331 -16z"/>
<path d="M1850 6745 l0 -215 155 0 155 0 0 60 0 60 65 0 65 0 0 65 0 64 -62 3
-63 3 -3 88 -3 87 -154 0 -155 0 0 -215z m300 165 l0 -41 -142 3 c-141 3 -143
3 -146 26 -7 50 -2 52 148 52 l140 0 0 -40z m0 -90 l0 -40 -85 0 -85 0 0 -65
0 -65 86 0 85 0 -3 -52 -3 -53 -140 0 -140 0 -3 145 c-1 79 0 150 2 157 4 10
40 13 146 13 l140 0 0 -40z m128 -102 l-3 -53 -140 0 -140 0 -3 53 -3 52 146
0 146 0 -3 -52z"/>
</g>
</svg>
